<mxfile host="65bd71144e" scale="8" border="0">
    <diagram id="FyCsB_sldOff4jIcLmJ8" name="Page-1">
        <mxGraphModel dx="428" dy="214" grid="1" gridSize="10" guides="1" tooltips="1" connect="1" arrows="1" fold="1" page="0" pageScale="1" pageWidth="827" pageHeight="1169" background="none" math="0" shadow="0">
            <root>
                <mxCell id="0"/>
                <mxCell id="1" parent="0"/>
                <mxCell id="13" style="edgeStyle=none;html=1;fontSize=8;entryX=0;entryY=0.5;entryDx=0;entryDy=0;fontFamily=Helvetica;" parent="1" source="2" target="6" edge="1">
                    <mxGeometry relative="1" as="geometry">
                        <mxPoint x="278" y="570" as="targetPoint"/>
                        <Array as="points">
                            <mxPoint x="310" y="570"/>
                            <mxPoint x="310" y="510"/>
                        </Array>
                    </mxGeometry>
                </mxCell>
                <mxCell id="14" value="Update location" style="edgeLabel;html=1;align=center;verticalAlign=middle;resizable=0;points=[];fontSize=8;rotation=90;" parent="13" vertex="1" connectable="0">
                    <mxGeometry x="-0.0489" y="1" relative="1" as="geometry">
                        <mxPoint x="3" y="-5" as="offset"/>
                    </mxGeometry>
                </mxCell>
                <mxCell id="2" value="Agents&lt;br&gt;" style="rounded=1;whiteSpace=wrap;html=1;fontFamily=Helvetica;" parent="1" vertex="1">
                    <mxGeometry x="328" y="555" width="72" height="30" as="geometry"/>
                </mxCell>
                <mxCell id="21" value="Infect" style="edgeStyle=none;html=1;exitX=0;exitY=0.5;exitDx=0;exitDy=0;entryX=1;entryY=0.5;entryDx=0;entryDy=0;fontSize=8;fontFamily=Helvetica;" parent="1" source="4" target="2" edge="1">
                    <mxGeometry relative="1" as="geometry"/>
                </mxCell>
                <mxCell id="23" style="edgeStyle=none;html=1;fontSize=8;entryX=1;entryY=0.5;entryDx=0;entryDy=0;fontFamily=Helvetica;" parent="1" source="4" target="7" edge="1">
                    <mxGeometry relative="1" as="geometry">
                        <mxPoint x="570" y="570" as="targetPoint"/>
                        <Array as="points">
                            <mxPoint x="530" y="570"/>
                            <mxPoint x="530" y="450"/>
                        </Array>
                    </mxGeometry>
                </mxCell>
                <mxCell id="24" value="Registrate" style="edgeLabel;html=1;align=center;verticalAlign=middle;resizable=0;points=[];fontSize=8;rotation=90;" parent="23" vertex="1" connectable="0">
                    <mxGeometry x="-0.3744" y="1" relative="1" as="geometry">
                        <mxPoint y="3" as="offset"/>
                    </mxGeometry>
                </mxCell>
                <mxCell id="4" value="Diseases" style="rounded=1;whiteSpace=wrap;html=1;fontFamily=Helvetica;" parent="1" vertex="1">
                    <mxGeometry x="450" y="555" width="68" height="30" as="geometry"/>
                </mxCell>
                <mxCell id="12" value="Sync time" style="edgeStyle=none;html=1;exitX=0.224;exitY=0.991;exitDx=0;exitDy=0;entryX=0.536;entryY=0;entryDx=0;entryDy=0;entryPerimeter=0;fontSize=8;exitPerimeter=0;fontFamily=Helvetica;" parent="1" edge="1">
                    <mxGeometry x="-0.3093" relative="1" as="geometry">
                        <mxPoint x="370.56000000000006" y="524.73" as="sourcePoint"/>
                        <mxPoint x="370.88" y="555" as="targetPoint"/>
                        <mxPoint as="offset"/>
                    </mxGeometry>
                </mxCell>
                <mxCell id="6" value="Environment" style="rounded=1;whiteSpace=wrap;html=1;fontFamily=Helvetica;" parent="1" vertex="1">
                    <mxGeometry x="328" y="495" width="190" height="30" as="geometry"/>
                </mxCell>
                <mxCell id="15" style="edgeStyle=none;html=1;fontSize=8;entryX=0;entryY=0.75;entryDx=0;entryDy=0;fontFamily=Helvetica;" parent="1" source="7" target="2" edge="1">
                    <mxGeometry relative="1" as="geometry">
                        <mxPoint x="248" y="465" as="targetPoint"/>
                        <Array as="points">
                            <mxPoint x="300" y="450"/>
                            <mxPoint x="300" y="580"/>
                        </Array>
                    </mxGeometry>
                </mxCell>
                <mxCell id="16" value="Set infection state" style="edgeLabel;html=1;align=center;verticalAlign=middle;resizable=0;points=[];fontSize=8;rotation=90;" parent="15" vertex="1" connectable="0">
                    <mxGeometry x="-0.1982" relative="1" as="geometry">
                        <mxPoint y="22" as="offset"/>
                    </mxGeometry>
                </mxCell>
                <mxCell id="18" style="edgeStyle=none;html=1;entryX=0.5;entryY=0;entryDx=0;entryDy=0;fontSize=8;fontFamily=Helvetica;" parent="1" edge="1">
                    <mxGeometry relative="1" as="geometry">
                        <mxPoint x="397" y="465" as="sourcePoint"/>
                        <mxPoint x="397" y="495" as="targetPoint"/>
                    </mxGeometry>
                </mxCell>
                <mxCell id="19" value="Collect infection possibility map" style="edgeLabel;html=1;align=center;verticalAlign=middle;resizable=0;points=[];fontSize=8;" parent="18" vertex="1" connectable="0">
                    <mxGeometry x="-0.2606" relative="1" as="geometry">
                        <mxPoint as="offset"/>
                    </mxGeometry>
                </mxCell>
                <mxCell id="7" value="Dynamics" style="rounded=1;whiteSpace=wrap;html=1;fontFamily=Helvetica;" parent="1" vertex="1">
                    <mxGeometry x="328" y="435" width="190" height="30" as="geometry"/>
                </mxCell>
                <mxCell id="25" style="edgeStyle=none;html=1;entryX=1;entryY=0.75;entryDx=0;entryDy=0;fontSize=8;fontFamily=Helvetica;" parent="1" source="8" target="4" edge="1">
                    <mxGeometry relative="1" as="geometry">
                        <Array as="points">
                            <mxPoint x="550" y="390"/>
                            <mxPoint x="550" y="580"/>
                        </Array>
                    </mxGeometry>
                </mxCell>
                <mxCell id="26" value="Initialise" style="edgeLabel;html=1;align=center;verticalAlign=middle;resizable=0;points=[];fontSize=8;rotation=90;" parent="25" vertex="1" connectable="0">
                    <mxGeometry x="0.4431" y="-1" relative="1" as="geometry">
                        <mxPoint x="1" y="7" as="offset"/>
                    </mxGeometry>
                </mxCell>
                <mxCell id="10" style="edgeStyle=none;html=1;entryX=1;entryY=0.5;entryDx=0;entryDy=0;fontFamily=Helvetica;" parent="1" source="8" target="6" edge="1">
                    <mxGeometry relative="1" as="geometry">
                        <mxPoint x="568" y="430" as="targetPoint"/>
                        <Array as="points">
                            <mxPoint x="540" y="390"/>
                            <mxPoint x="540" y="510"/>
                        </Array>
                    </mxGeometry>
                </mxCell>
                <mxCell id="11" value="&lt;font style=&quot;font-size: 8px;&quot;&gt;Set time&lt;/font&gt;" style="edgeLabel;html=1;align=center;verticalAlign=middle;resizable=0;points=[];rotation=90;" parent="10" vertex="1" connectable="0">
                    <mxGeometry x="-0.1317" y="-1" relative="1" as="geometry">
                        <mxPoint x="2" y="8" as="offset"/>
                    </mxGeometry>
                </mxCell>
                <mxCell id="27" style="edgeStyle=none;html=1;entryX=0;entryY=0.75;entryDx=0;entryDy=0;fontSize=8;fontFamily=Helvetica;" parent="1" source="8" target="2" edge="1">
                    <mxGeometry relative="1" as="geometry">
                        <Array as="points">
                            <mxPoint x="290" y="390"/>
                            <mxPoint x="290" y="578"/>
                        </Array>
                    </mxGeometry>
                </mxCell>
                <mxCell id="28" value="Initialise" style="edgeLabel;html=1;align=center;verticalAlign=middle;resizable=0;points=[];fontSize=8;rotation=90;" parent="27" vertex="1" connectable="0">
                    <mxGeometry x="-0.4434" relative="1" as="geometry">
                        <mxPoint as="offset"/>
                    </mxGeometry>
                </mxCell>
                <mxCell id="29" style="edgeStyle=none;html=1;fontSize=8;fontFamily=Helvetica;" parent="1" edge="1">
                    <mxGeometry relative="1" as="geometry">
                        <mxPoint x="383" y="405" as="sourcePoint"/>
                        <mxPoint x="383" y="435" as="targetPoint"/>
                    </mxGeometry>
                </mxCell>
                <mxCell id="30" value="Call &quot;apply dynamics&quot;" style="edgeLabel;html=1;align=center;verticalAlign=middle;resizable=0;points=[];fontSize=8;" parent="29" vertex="1" connectable="0">
                    <mxGeometry x="-0.3702" y="-1" relative="1" as="geometry">
                        <mxPoint y="-2" as="offset"/>
                    </mxGeometry>
                </mxCell>
                <mxCell id="31" style="edgeStyle=none;html=1;exitX=0.11;exitY=1.01;exitDx=0;exitDy=0;entryX=0.11;entryY=0.004;entryDx=0;entryDy=0;fontSize=8;exitPerimeter=0;entryPerimeter=0;fontFamily=Helvetica;" parent="1" edge="1">
                    <mxGeometry relative="1" as="geometry">
                        <mxPoint x="337.9" y="405.29999999999995" as="sourcePoint"/>
                        <mxPoint x="337.9" y="495.12" as="targetPoint"/>
                    </mxGeometry>
                </mxCell>
                <mxCell id="32" value="Initialise" style="edgeLabel;html=1;align=center;verticalAlign=middle;resizable=0;points=[];fontSize=8;rotation=90;" parent="31" vertex="1" connectable="0">
                    <mxGeometry x="-0.4609" relative="1" as="geometry">
                        <mxPoint y="20" as="offset"/>
                    </mxGeometry>
                </mxCell>
                <mxCell id="37" style="edgeStyle=none;html=1;exitX=0.25;exitY=0;exitDx=0;exitDy=0;entryX=0.25;entryY=1;entryDx=0;entryDy=0;fontSize=8;fontFamily=Helvetica;" parent="1" source="8" target="33" edge="1">
                    <mxGeometry relative="1" as="geometry"/>
                </mxCell>
                <mxCell id="38" value="Call&amp;nbsp; &quot;report generation&quot;" style="edgeLabel;html=1;align=center;verticalAlign=middle;resizable=0;points=[];fontSize=8;" parent="37" vertex="1" connectable="0">
                    <mxGeometry x="-0.3923" y="1" relative="1" as="geometry">
                        <mxPoint x="1" y="-1" as="offset"/>
                    </mxGeometry>
                </mxCell>
                <mxCell id="8" value="Simulation" style="rounded=1;whiteSpace=wrap;html=1;fontFamily=Helvetica;" parent="1" vertex="1">
                    <mxGeometry x="328" y="375" width="190" height="30" as="geometry"/>
                </mxCell>
                <mxCell id="36" value="collect data" style="edgeStyle=none;html=1;exitX=0.75;exitY=1;exitDx=0;exitDy=0;entryX=0.75;entryY=0;entryDx=0;entryDy=0;fontSize=8;fontFamily=Helvetica;" parent="1" edge="1">
                    <mxGeometry x="-0.0211" relative="1" as="geometry">
                        <mxPoint x="490.5" y="346" as="sourcePoint"/>
                        <mxPoint x="490.5" y="375" as="targetPoint"/>
                        <mxPoint as="offset"/>
                    </mxGeometry>
                </mxCell>
                <mxCell id="33" value="Statistics" style="rounded=1;whiteSpace=wrap;html=1;fontFamily=Helvetica;" parent="1" vertex="1">
                    <mxGeometry x="328" y="320" width="190" height="30" as="geometry"/>
                </mxCell>
                <mxCell id="41" value="" style="endArrow=classic;html=1;fontSize=8;exitX=0.893;exitY=0.99;exitDx=0;exitDy=0;exitPerimeter=0;entryX=0.896;entryY=-0.013;entryDx=0;entryDy=0;entryPerimeter=0;fontFamily=Helvetica;" parent="1" edge="1">
                    <mxGeometry width="50" height="50" relative="1" as="geometry">
                        <mxPoint x="454.6700000000001" y="349.70000000000005" as="sourcePoint"/>
                        <mxPoint x="455.24" y="434.61" as="targetPoint"/>
                    </mxGeometry>
                </mxCell>
                <mxCell id="42" value="Record agent number" style="edgeLabel;html=1;align=center;verticalAlign=middle;resizable=0;points=[];fontSize=8;" parent="41" vertex="1" connectable="0">
                    <mxGeometry x="0.5214" y="1" relative="1" as="geometry">
                        <mxPoint x="-2" y="7" as="offset"/>
                    </mxGeometry>
                </mxCell>
                <mxCell id="43" value="" style="endArrow=classic;html=1;exitX=0.651;exitY=0.993;exitDx=0;exitDy=0;exitPerimeter=0;entryX=0.589;entryY=0.033;entryDx=0;entryDy=0;entryPerimeter=0;" parent="1" edge="1">
                    <mxGeometry width="50" height="50" relative="1" as="geometry">
                        <mxPoint x="495.68999999999994" y="404.7900000000001" as="sourcePoint"/>
                        <mxPoint x="494.90999999999997" y="495.99" as="targetPoint"/>
                    </mxGeometry>
                </mxCell>
                <mxCell id="44" value="Sync time" style="edgeLabel;html=1;align=center;verticalAlign=middle;resizable=0;points=[];fontSize=8;" parent="43" vertex="1" connectable="0">
                    <mxGeometry x="0.3079" relative="1" as="geometry">
                        <mxPoint y="16" as="offset"/>
                    </mxGeometry>
                </mxCell>
            </root>
        </mxGraphModel>
    </diagram>
</mxfile>